<svg width="103" height="72" viewBox="0 0 103 72" fill="none" xmlns="http://www.w3.org/2000/svg">
<g clip-path="url(#clip0_130_1705)">
<path d="M28.7867 50.7325C28.7244 50.9206 28.657 51.1087 28.5829 51.2918C27.5906 53.759 25.5522 55.5661 23.2106 56.51C23.2005 56.4966 23.1904 56.4831 23.1803 56.4697C15.153 58.8092 6.37441 55.0975 2.59915 47.3198C-1.61411 38.6368 2.00616 28.1819 10.6837 23.9681C14.2939 22.2147 18.2106 21.8166 21.8579 22.5758C22.1442 23.7178 22.5536 24.8481 23.0876 25.9499C24.5448 28.9528 26.7466 31.3495 29.3646 33.0256C27.5199 35.7649 26.4822 38.9811 26.3811 42.2914C28.8137 44.2245 29.8177 47.5516 28.7867 50.7325Z" fill="white"/>
<path d="M10.3149 23.213C14.0394 21.4041 18.078 20.9712 21.8507 21.7172L22.0301 21.7536L22.5471 21.8612L22.6752 22.3721C22.9475 23.4578 23.337 24.5338 23.8461 25.5842L23.9115 25.7178C25.2995 28.5154 27.3682 30.7493 29.8199 32.319L30.5433 32.782L30.0641 33.4937C28.3824 35.9908 27.4049 38.905 27.2403 41.9155C29.7132 44.106 30.6747 47.6391 29.5884 50.9906L29.5876 50.9933L29.5866 50.9959C29.5202 51.1963 29.4468 51.4021 29.3642 51.606C28.2747 54.3135 26.0491 56.2716 23.5266 57.2884L22.9258 57.5307L22.8504 57.4306C14.6567 59.5351 5.8514 55.717 1.93484 47.8759L1.84107 47.6854C-2.57361 38.5874 1.2184 27.6304 10.3149 23.213ZM21.1803 23.3006C17.9099 22.7246 14.4391 23.1211 11.2141 24.6457L11.0527 24.7229C2.79425 28.7333 -0.654205 38.6861 3.35756 46.9539L3.44262 47.1268C7.08164 54.4123 15.3659 57.8722 22.944 55.6635L23.2839 55.5645C25.2759 54.6579 26.9603 53.0703 27.8013 50.9792L27.802 50.9774L27.8503 50.8542C27.898 50.7296 27.9434 50.6008 27.9871 50.4691C28.9123 47.6074 28.0013 44.6525 25.8563 42.9479L25.5264 42.686L25.5392 42.2658C25.6366 39.078 26.563 35.9735 28.2133 33.2633C25.7743 31.5387 23.7251 29.1914 22.3296 26.3155L22.3294 26.3152C21.8517 25.3296 21.4691 24.3211 21.1803 23.3006Z" fill="#5B373B"/>
<path d="M56.0612 21.0286C55.6636 23.5512 54.7168 25.9697 53.2849 28.0926C52.9564 28.583 52.601 29.0583 52.2202 29.5134C48.6117 32.8792 43.0238 33.3511 38.8611 30.3666C37.6515 29.5017 36.7385 28.3747 36.1438 27.1185C34.8079 27.7752 33.5933 28.578 32.51 29.5017C31.2904 30.5396 30.2358 31.7287 29.3648 33.0253C26.7469 31.3491 24.5451 28.9525 23.0879 25.9495C22.5539 24.8478 22.1445 23.7175 21.8581 22.5754C19.8753 14.7137 23.5967 6.27761 31.1741 2.59784C39.8533 -1.61602 50.3048 2.00497 54.5181 10.6863C56.1387 14.0251 56.5986 17.6243 56.0612 21.0286Z" fill="white"/>
<path d="M30.8051 1.84301C39.9047 -2.57496 50.8606 1.22259 55.2762 10.3207H55.276C56.974 13.8189 57.4562 17.5918 56.893 21.1593C56.4765 23.802 55.4848 26.3361 53.9838 28.5614C53.6395 29.0753 53.2666 29.5737 52.8669 30.0515L52.8336 30.0913L52.7955 30.1269C48.8994 33.7609 42.8651 34.272 38.3692 31.0487V31.0485C37.293 30.2788 36.4298 29.3196 35.793 28.249C34.8021 28.7965 33.8887 29.4311 33.0573 30.1401L33.0567 30.1405C31.8963 31.128 30.893 32.2594 30.0645 33.4928L29.6048 34.1772L28.9094 33.7321C26.1642 31.9745 23.856 29.4611 22.3295 26.3154L22.3293 26.3151C21.7706 25.1624 21.3416 23.9783 21.0412 22.7803C18.9636 14.5425 22.8609 5.70103 30.8051 1.84317V1.84301ZM53.7597 11.0522C49.78 2.85227 39.9566 -0.602603 31.7366 3.26041L31.5428 3.35308C24.3884 6.82741 20.8424 14.7601 22.6315 22.1954L22.6748 22.3709L22.6751 22.3721C22.9474 23.4577 23.3369 24.5337 23.846 25.5841L23.9116 25.7178C25.1717 28.2576 26.993 30.3325 29.1524 31.8679C29.963 30.7752 30.9033 29.765 31.9623 28.8637C33.0989 27.8945 34.3724 27.053 35.7712 26.3655L36.5396 25.9877L36.9053 26.7602C37.4406 27.8911 38.2621 28.9052 39.3518 29.6844L39.3526 29.6851C43.168 32.4205 48.2856 32.0006 51.6075 28.9341C51.9557 28.5149 52.2819 28.0777 52.5842 27.6264L52.5851 27.6254L52.5857 27.6243C53.9485 25.6039 54.8503 23.301 55.229 20.8986V20.8982C55.7406 17.6571 55.3029 14.2318 53.7597 11.0524V11.0522Z" fill="#5B373B"/>
<path d="M100.049 38.5263C95.0065 37.8562 84.4472 32.9923 74.8061 41.6535C65.4867 50.0258 61.5059 58.645 50.795 61.4598C41.9558 63.7842 33.4433 59.4729 28.851 51.7607C28.76 51.6062 28.6691 51.4517 28.5832 51.2921C28.6573 51.1091 28.7247 50.921 28.787 50.7329C29.818 47.5519 28.814 44.2248 26.3813 42.2934C26.4824 38.9814 27.5202 35.7652 29.3648 33.0259C30.2358 31.7294 31.2904 30.5403 32.51 29.5023C33.5932 28.5786 34.8079 27.7758 36.1438 27.1191C36.7385 28.3754 37.6515 29.5023 38.8611 30.3673C43.0238 33.3517 48.6117 32.8798 52.2202 29.5141C52.6009 29.059 52.9564 28.5837 53.2849 28.0932C53.3304 28.1252 53.3776 28.1554 53.423 28.1873C55.9786 29.8584 58.1299 32.2231 59.5618 35.1706C59.8583 35.7853 60.1144 36.4101 60.3351 37.0416C83.1062 25.8897 97.0583 35.9734 100.049 38.5263Z" fill="white"/>
<path d="M36.9054 26.7609C37.4239 27.8565 38.2111 28.8423 39.2505 29.6113L39.3519 29.6851L39.3527 29.6856C43.168 32.4211 48.2854 32.0012 51.6074 28.9348C51.9556 28.5156 52.282 28.0784 52.5843 27.6271L53.0637 26.9115L53.7694 27.4067C53.7837 27.4167 53.7995 27.4274 53.8239 27.4437C53.8405 27.4549 53.8619 27.4694 53.8849 27.4852L54.1348 27.6517C56.6633 29.365 58.7967 31.7357 60.2488 34.6605L60.3197 34.8048L60.3207 34.8069C60.493 35.1641 60.6517 35.5243 60.7985 35.8865C71.9655 30.6184 81.0541 30.3726 87.7874 31.824C94.6716 33.308 99.0304 36.5518 100.596 37.8886L102.757 39.7337L99.937 39.3588C94.5603 38.6442 84.6329 33.956 75.3697 42.2776L75.3695 42.2774C73.0704 44.3429 71.0961 46.4277 69.2519 48.4496C67.4171 50.4611 65.6878 52.4374 63.9233 54.2292C60.3703 57.8372 56.57 60.8105 51.0095 62.2718C41.7488 64.707 32.8786 60.1701 28.1265 52.1896L28.1255 52.1878L28.1244 52.186C28.0347 52.0336 27.9357 51.8654 27.8409 51.6895L27.6542 51.3428L27.8019 50.978C27.8676 50.8158 27.9288 50.6453 27.987 50.4696C28.9123 47.6078 28.001 44.6531 25.8564 42.9504L25.5264 42.6884L25.5392 42.2681C25.6451 38.7983 26.7322 35.4286 28.6653 32.558C29.5786 31.1986 30.6843 29.9519 31.963 28.8638C33.0994 27.8948 34.3727 27.0536 35.7712 26.3662L36.5396 25.9883L36.9054 26.7609ZM35.7931 28.2497C34.8022 28.7972 33.8887 29.4317 33.0574 30.1406L33.0567 30.1413C31.8963 31.1287 30.893 32.26 30.0645 33.4934L30.064 33.4942C28.3824 35.9913 27.4049 38.9054 27.2403 41.9174C29.7134 44.1066 30.6746 47.64 29.5884 50.9913L29.5876 50.9939L29.5866 50.9964C29.5621 51.0704 29.5362 51.1451 29.5096 51.2203C29.531 51.2568 29.5526 51.2941 29.5751 51.3323L29.6797 51.5061C34.1351 58.8397 42.2282 62.8442 50.5801 60.6479C55.7306 59.2944 59.2762 56.551 62.7212 53.0526C64.4556 51.2913 66.1382 49.3669 68.0055 47.3197C69.8635 45.2828 71.8814 43.1504 74.242 41.0298C82.0461 34.0189 90.5615 35.5265 96.1698 36.8314C94.0701 35.6025 91.141 34.2653 87.4314 33.4656C80.9154 32.061 71.9278 32.2999 60.7064 37.7954L59.8525 38.2137L59.5395 37.318C59.3288 36.7153 59.0851 36.1207 58.8036 35.5368C57.5408 32.9375 55.6918 30.8166 53.4949 29.2544C53.2936 29.5258 53.0844 29.7921 52.8669 30.052L52.8335 30.0921L52.7955 30.1275C48.8996 33.7613 42.8659 34.2725 38.37 31.0497V31.0499C37.2935 30.2801 36.43 29.3205 35.7931 28.2497Z" fill="#5B373B"/>
<path d="M100.657 39.0777C77.6464 35.9891 78.8476 56.3429 63.6101 65.8287C42.938 78.6937 29.3615 65.3568 23.2109 56.5109C25.5526 55.567 27.591 53.7599 28.5832 51.2927C28.6691 51.4522 28.7601 51.6068 28.8511 51.7613C33.4434 59.4735 41.9558 63.7848 50.7951 61.4604C61.506 58.6455 65.4867 50.0263 74.8061 41.6541C84.4473 32.9929 95.0065 37.8567 100.049 38.5268C100.451 38.8711 100.657 39.0777 100.657 39.0777Z" fill="white"/>
<path d="M74.4773 40.8208C84.2789 32.2443 95.1413 36.9196 99.9345 37.6609L100.16 37.6935L100.407 37.7263L100.597 37.8884C100.808 38.0686 100.969 38.2143 101.078 38.3166C101.133 38.3678 101.176 38.4082 101.205 38.4367C101.22 38.4509 101.231 38.4622 101.24 38.4703C101.244 38.4744 101.247 38.4778 101.25 38.4803C101.251 38.4816 101.252 38.4826 101.253 38.4834C101.253 38.4838 101.254 38.4843 101.254 38.4846L101.255 38.4852H101.255C101.255 38.4853 101.255 38.4853 100.657 39.0767L101.255 38.4854L102.999 40.2384L100.544 39.909C94.9168 39.1537 90.8512 39.8405 87.6704 41.3755C84.4802 42.9149 82.0935 45.3483 79.8897 48.2444C78.7866 49.6938 77.7404 51.244 76.6602 52.8485C75.5844 54.4467 74.4757 56.0972 73.2661 57.7138C70.8809 60.9017 68.0771 63.9942 64.2397 66.4247L64.0561 66.54C53.5081 73.1044 44.6586 73.0311 37.638 70.0844C30.6771 67.1627 25.6327 61.467 22.5186 56.9882L21.9185 56.125L22.8952 55.7314C25.0554 54.8607 26.9061 53.2051 27.8013 50.9791L28.4724 49.3106L29.3252 50.8945C29.4017 51.0365 29.4839 51.1763 29.5753 51.3316C34.0079 58.7756 42.1625 62.861 50.5802 60.6474H50.5804C55.7308 59.2938 59.2762 56.5503 62.7212 53.0519C64.4557 51.2906 66.1384 49.3662 68.0058 47.319C69.8637 45.2821 71.8817 43.1499 74.2422 41.0292L74.4773 40.8208ZM93.6972 38.0373C88.3995 36.9825 81.7282 36.5649 75.3699 42.2769C73.0708 44.3424 71.0964 46.4272 69.2521 48.449C67.4173 50.4606 65.688 52.4367 63.9235 54.2285C60.3706 57.8365 56.5702 60.81 51.0098 62.2713C42.0786 64.6198 33.5108 60.4835 28.6497 53.0276C27.6333 54.6922 26.1542 55.9866 24.4842 56.849C27.5395 61.053 32.161 65.9632 38.2918 68.5364C44.7651 71.2534 53.0399 71.4159 63.1639 65.1154L63.336 65.0073C66.9353 62.7276 69.5963 59.8096 71.9158 56.7096C73.0959 55.1324 74.181 53.5175 75.2614 51.9127C76.3374 50.3143 77.4102 48.7238 78.5475 47.2293C80.8244 44.2373 83.4041 41.5684 86.9365 39.8638C88.8913 38.9204 91.1117 38.2849 93.6972 38.0373Z" fill="#5B373B"/>
<path d="M40.642 39.9923C42.1698 36.0798 46.5815 34.1417 50.4994 35.6723L49.8848 37.236C46.8385 36.0459 43.4031 37.5509 42.2118 40.6016C40.6798 44.5253 42.6185 48.9456 46.5354 50.4755C51.5396 52.4299 57.1833 49.9589 59.1392 44.9486L59.226 44.7199C60.0968 42.3548 60.1997 39.8913 59.6586 37.6026L61.2983 37.2172C61.9325 39.8997 61.7872 42.796 60.7092 45.5577C58.4344 51.3847 51.8992 54.2883 46.0587 52.092L45.9208 52.0392C41.135 50.1698 38.7745 44.7751 40.642 39.9923Z" fill="#5B373B"/>
<path d="M15.394 44.6062C16.6915 40.9792 20.7002 39.03 24.3566 40.2546C25.3133 40.575 26.1682 41.0473 26.9078 41.635L25.8578 42.9484C25.27 42.4813 24.5885 42.1039 23.8202 41.8465C21.038 40.9147 17.9713 42.4018 16.981 45.1703L15.394 44.6062Z" fill="#5B373B"/>
<path d="M36.225 18.0747C38.6719 14.6573 43.4261 13.8704 46.8428 16.3189L45.8595 17.6827C43.2015 15.7779 39.5023 16.3883 37.5961 19.0505C35.9259 21.3826 35.7586 24.3377 36.9058 26.7613L35.3822 27.478C34.0074 24.5734 34.1798 21.0348 36.1307 18.2088L36.225 18.0747Z" fill="#5B373B"/>
</g>
<defs>
<clipPath id="clip0_130_1705">
<rect width="103" height="72" fill="white"/>
</clipPath>
</defs>
</svg>
