<svg width="58" height="16" viewBox="0 0 58 16" fill="none" xmlns="http://www.w3.org/2000/svg">
<g clip-path="url(#clip0_129_5193)">
<path d="M0.485568 7.39237L0.787248 6.97147L0.102978 6.9668C-0.180208 7.06384 0.178109 7.24038 0.485568 7.39237Z" fill="#773E2A"/>
<path d="M2.42259 6.73747L1.85622 6.93155C1.24708 6.67784 1.95794 6.46038 2.19489 6.38672C1.17657 6.45453 1.80421 6.90583 1.63198 7.15252L2.42259 6.7363V6.73747Z" fill="#773E2A"/>
<path d="M3.16608 6.86677C3.65964 6.92055 3.53365 6.62125 3.32906 6.51953C3.29092 6.64346 2.9615 6.76506 3.16608 6.86677Z" fill="#773E2A"/>
<path d="M33.8449 9.48744C33.7085 9.41962 33.5467 9.37052 33.5733 9.29102C33.4149 9.36818 33.3791 9.43716 33.8449 9.48744Z" fill="#773E2A"/>
<path d="M33.5732 9.29169C33.6033 9.27766 33.6368 9.26129 33.675 9.24609C33.6438 9.25194 33.6172 9.25311 33.5813 9.26363C33.5721 9.27415 33.5767 9.28234 33.5732 9.29169Z" fill="#773E2A"/>
<path d="M17.799 7.40208C17.302 7.29803 16.6732 7.36818 16.0826 7.3144C15.8479 7.19865 15.4931 7.10278 15.4619 6.95312C15.4619 7.01743 15.4573 7.08875 15.4838 7.16007L14.0806 7.27348L14.9256 7.45353C14.5511 7.59967 13.6576 7.44417 13.542 7.76569C14.7776 7.4278 16.716 7.81597 17.799 7.40091V7.40208Z" fill="#773E2A"/>
<path d="M14.0761 8.26763C13.7594 8.01626 13.5826 8.21385 13.1353 8.13552L13.2624 8.43482L14.0761 8.26763Z" fill="#773E2A"/>
<path d="M13.3455 7.24219L12.9189 7.36261L13.6009 7.36846L13.3455 7.24219Z" fill="#773E2A"/>
<path d="M23.5265 8.14207L23.4236 8.0918L21.8794 8.27769L23.5265 8.14207Z" fill="#773E2A"/>
<path d="M33.1572 9.95469L33.8773 9.8366L33.7756 9.78516C33.5941 9.93364 33.3445 9.85648 33.1572 9.95469Z" fill="#773E2A"/>
<path d="M40.8435 10.8086C40.4124 10.8799 40.7742 11.1056 40.6436 11.2786C40.9372 10.7583 41.1834 11.3078 40.8435 10.8086Z" fill="#773E2A"/>
<path d="M42.2848 10.5721C42.0398 10.5452 41.8988 10.6188 41.7612 10.6925C42.0768 10.9427 42.0987 10.6703 42.2848 10.5721Z" fill="#773E2A"/>
<path d="M47.418 1.15234L47.4526 1.2564C47.4677 1.22951 47.4642 1.19443 47.418 1.15234Z" fill="#773E2A"/>
<path d="M46.8275 13.6641C46.824 13.6722 46.8182 13.6781 46.8159 13.6863C46.8263 13.6758 46.8286 13.6687 46.8275 13.6641Z" fill="#773E2A"/>
<path d="M48.7776 4.86757C48.7776 4.86757 48.7753 4.86523 48.7741 4.86523C48.7649 4.8664 48.7568 4.86523 48.7476 4.8664H48.7776V4.86757Z" fill="#773E2A"/>
<path d="M55.9379 9.6004C56.2015 9.54077 56.5448 9.46127 56.9123 9.36306C57.2787 9.26602 57.6706 9.15027 58 9.03336C57.9965 9.02868 57.9931 9.024 57.9896 9.01933C57.9226 9.01699 57.8648 9.00763 57.8162 8.99477C57.7688 8.98191 57.7295 8.96437 57.6868 8.94333C57.6047 8.90124 57.533 8.84512 57.4429 8.78783L57.681 8.80771C57.2683 8.57154 57.3643 8.54932 57.4544 8.51775C57.5492 8.48852 57.6405 8.45111 57.2637 8.21845C57.132 8.19039 57.0025 8.1635 56.8742 8.13895C56.4535 7.95188 56.5124 7.90628 56.5321 7.83964C56.5425 7.80807 56.5459 7.773 56.4847 7.72389C56.4234 7.67479 56.2951 7.60931 56.0582 7.52864C56.1645 7.60814 56.0836 7.64205 55.9599 7.6327C55.8362 7.62217 55.6779 7.57541 55.6155 7.4772L55.8362 7.48655C55.6813 7.38717 55.5773 7.37314 55.5334 7.29481C55.6883 7.33222 55.8016 7.26207 55.5923 7.1054C55.6952 7.11943 55.8004 7.1358 55.909 7.15451C55.6929 7.07618 55.4837 7.00252 55.2918 6.94991C55.241 6.8061 55.0641 6.66346 54.9162 6.53953C54.7671 6.41443 54.6445 6.30336 54.663 6.18995C54.663 6.18995 54.5382 6.04965 54.3775 5.91286C54.2793 5.83335 54.1533 5.76554 54.0446 5.81582C54.1995 5.77139 54.0423 5.57029 54.1972 5.49547C54.01 5.53639 53.6667 5.40778 53.6632 5.19265L53.6944 5.19499C53.4008 4.73902 52.8772 4.808 52.6414 4.36255C52.5536 4.50752 52.4207 4.28304 52.334 4.48999C52.0831 4.42451 51.9814 4.20237 51.8739 4.04804C51.7641 3.89605 51.6509 3.81187 51.3804 4.02232C51.1885 3.91827 51.2729 3.74055 51.2047 3.64468L51.2671 3.64819C50.9146 3.44008 50.8152 3.37694 50.5828 3.18169C50.4233 3.14311 50.2222 3.37811 50.0511 3.15597C50.1933 3.1092 50.0916 3.06127 50.0107 3.00047C50.0731 3.02386 50.1159 2.9993 50.0581 2.85316C50.0211 2.87303 49.9841 2.87537 49.9506 2.87537C49.9552 2.86719 49.9552 2.85783 49.9656 2.84848C49.8038 2.78418 49.8049 2.83328 49.8581 2.89291C49.8442 2.90577 49.835 2.92915 49.835 2.97124C49.7853 2.73975 49.4339 2.69415 49.5379 2.50942C49.0999 2.2487 48.6734 2.22649 48.2827 2.05462C48.3035 1.9377 48.4376 1.91315 48.5624 1.94822L48.2931 1.81143C48.3809 1.68282 48.4849 1.83482 48.5786 1.86054C48.4248 1.44315 47.8273 1.65944 47.6007 1.23504L47.462 1.29232L47.4516 1.26076C47.4181 1.31688 47.2921 1.34143 47.2297 1.32506C47.2516 1.17658 47.3984 1.05966 47.2147 0.957944C47.1407 0.759186 46.7766 0.769708 46.5558 0.720603C46.6437 0.801276 46.5743 0.846873 46.5073 0.862072C46.416 0.812967 46.4333 0.662145 46.3339 0.673837L46.3975 0.545229C46.3189 0.65513 46.0784 0.541721 46.0149 0.58498C46.0287 0.436497 46.2137 0.561597 46.2865 0.484432C45.9085 0.293859 46.0981 0.388561 45.7201 0.199157C45.4601 0.212017 45.675 0.372193 45.5063 0.463387C45.3179 0.399083 45.0867 0.434158 44.9341 0.233062L44.9272 0.410775C44.7353 0.386223 44.5943 0.345302 44.481 0.27866C44.3655 0.215525 44.2765 0.130176 44.1944 0.00390625C44.0037 0.0120904 43.8349 0.0272895 43.6858 0.0459961C43.5355 0.0658719 43.4003 0.103285 43.2847 0.136022C43.0536 0.205002 42.8906 0.284505 42.7773 0.368685C42.5496 0.538214 42.5045 0.722942 42.5588 0.887794C42.6432 1.22334 43.0235 1.48173 43.0235 1.48173C43.3876 1.82897 43.7147 1.93186 44.1054 2.03474C44.4938 2.11892 44.9353 2.19843 45.4878 2.43927C45.9212 2.75261 46.157 3.00398 46.4032 3.25769C46.6506 3.50555 46.9141 3.73003 47.4065 3.99543C47.5117 4.0761 47.6227 4.1521 47.7359 4.22576C47.8492 4.30175 47.9648 4.37658 48.0816 4.4479C48.3139 4.59287 48.5531 4.72616 48.7728 4.86879C49.116 4.81969 49.3253 5.278 49.6824 5.29203L49.6894 5.47442C49.8119 5.48027 49.9356 5.51651 49.9702 5.63927L49.9402 5.66733C50.124 5.67669 50.2211 5.83219 50.3135 5.83686L50.2835 5.86492L50.4395 5.9643L50.3794 5.99002C50.6545 6.06836 50.8741 6.23438 51.0302 6.42612L51.1192 6.28114C51.4047 6.75232 51.7664 6.605 51.9872 7.07501L51.956 7.10307C52.3236 7.11943 52.4542 7.33105 52.5836 7.54384C52.616 7.59762 52.6484 7.65024 52.6842 7.70168C52.7027 7.7274 52.7212 7.75195 52.742 7.77534C52.7478 7.78118 52.7524 7.78703 52.7582 7.79287C52.7166 7.76832 52.6796 7.74494 52.6495 7.72272L52.4403 8.09335C51.9791 7.86653 51.6763 7.76481 51.548 7.41523L51.5792 7.76364C51.4116 7.538 49.7714 7.72506 50.3528 7.15802C50.213 7.23051 50.0812 7.40471 49.7841 7.3521L49.7529 7.00486C49.3183 7.07501 48.8352 7.12177 48.7196 6.92185C48.9565 6.84936 49.0409 6.70087 49.1241 6.55239C47.3071 6.41443 48.6918 7.6666 47.0794 7.63036L47.1072 7.40705L46.6887 7.62802L46.2715 7.32638C45.6589 8.06763 44.0118 7.16036 43.0212 7.52513C42.6351 7.5719 42.1508 7.09605 41.4215 7.11593L41.455 7.46434C40.8828 7.0867 38.7075 6.77219 38.1931 5.94793C37.6302 6.19229 38.2486 6.02276 38.2244 6.29634C37.1332 6.61085 37.0812 6.06368 36.5252 5.83569C35.8548 5.9795 37.0269 5.98885 36.6593 6.23438C35.6549 5.92923 35.8167 6.62605 34.5718 6.34311C34.4551 6.14318 34.9013 6.22152 35.0365 6.09875C34.1395 6.41443 32.5028 6.12915 31.1875 6.14318C29.6964 5.83452 27.4829 5.64278 25.7399 5.25696L25.7017 5.38089C24.9863 5.0278 24.1818 5.29437 23.3357 5.11432L23.7449 5.31659C23.1785 5.51184 22.8722 5.35984 22.3417 5.42999L22.0631 5.05469C21.4875 5.14939 21.7984 5.35049 21.3765 5.52119C20.8656 5.26865 19.7595 5.43467 19.5133 5.40778C19.3491 5.2324 19.7363 5.18564 19.8242 5.08743C19.1503 5.18096 19.1827 5.52937 18.3516 5.49781L18.3424 5.39843C16.3358 5.82985 13.8241 5.58666 11.6014 5.81932C11.7505 5.84505 11.7089 5.9187 11.7644 5.9947C9.42721 6.02627 6.73637 5.93156 4.85693 6.7114C6.12145 6.67165 8.23205 7.33339 9.5428 6.74764C10.0075 7.0259 10.7553 6.68334 10.9368 7.05747C12.7619 7.29481 13.534 6.67983 15.2967 6.74296C15.425 6.78155 15.4527 6.84702 15.4585 6.92418C15.4585 6.92185 15.4585 6.92068 15.4585 6.91834C17.1738 6.48341 18.5689 6.79324 20.3154 6.70789C20.7535 6.68567 21.3441 6.74063 21.4089 6.91483C21.1199 6.96277 21.3303 7.11359 21.0922 7.18725C21.7152 7.06682 21.18 6.56525 22.0689 6.67281L21.929 7.26792C22.3104 6.64943 23.0155 7.42459 23.6663 7.08202C23.8847 7.33222 23.4582 7.45265 22.9693 7.44914C23.5195 7.57775 23.5842 7.23051 24.0257 7.25857L23.5854 7.75312C24.0766 7.28429 24.4257 7.88407 24.6857 8.05944C24.7227 7.93551 24.4904 7.53566 25.0799 7.59061C25.3307 7.6666 25.1955 7.79053 25.2521 7.86536C25.2903 7.74026 25.5122 7.51929 25.9029 7.5228C25.9676 7.697 25.6324 7.76949 25.6 7.9437C25.8948 7.94603 26.1364 7.92265 26.3433 8.07347C26.8692 7.95305 26.3201 7.82561 26.6461 7.65257C27.4402 7.80807 26.7004 8.24885 26.9801 8.62532C26.3687 8.84395 25.5908 8.88721 25.2625 9.00997L26.423 8.91878C26.3444 9.11753 27.1893 9.29759 26.5721 9.46595C27.7153 9.69978 29.115 9.53493 30.2258 9.42035C30.0721 9.34435 29.8733 9.29408 29.9114 9.16898C30.487 9.07428 30.413 9.32214 30.524 9.47296C30.9517 9.35137 30.9193 9.00413 31.1898 8.75743C32.0497 9.08597 32.1792 8.9141 32.9039 9.36657L32.8727 9.01816C33.3871 9.3198 33.4853 8.79952 34.0436 9.02751C34.0713 9.10351 33.8506 9.18301 33.6737 9.2555C34.18 9.16313 34.1245 9.56766 34.6192 9.45425L34.2147 9.82371C34.6054 9.82605 35.1821 9.73135 34.9671 10.0529C35.6653 9.68575 36.8535 9.89269 37.7146 9.70212L37.6453 10.0003C38.1007 9.65535 39.2623 10.0868 39.6623 9.66821L39.7224 9.79331L40.6147 9.42736C41.01 9.47997 40.8563 9.92543 40.8932 9.8015C41.7671 9.75941 42.4502 9.76408 43.0038 9.94296C43.161 9.54662 44.0811 9.47881 44.8128 9.4601C46.7142 9.67756 48.6999 9.7103 50.6441 9.64483C50.614 9.70913 50.5794 9.74304 50.5331 9.68107L50.4464 9.84826C50.3898 9.82605 50.2904 9.8202 50.3332 9.73719C50.2049 9.78747 50.2199 9.82605 50.1621 9.93712L49.9633 9.85995C49.4224 9.98388 49.1357 10.4551 48.5982 10.6468C47.8469 10.6562 46.8182 11.4804 46.2264 11.9539C45.4496 12.7443 43.9459 12.3596 43.168 13.1897C43.1217 13.1722 43.0744 13.2821 43.0871 13.3078L42.1947 13.6773C42.1947 13.6773 41.9266 13.7942 41.5868 13.9707C41.2469 14.1484 40.8354 14.3881 40.5476 14.6383C40.261 14.8897 40.0992 15.1586 40.2633 15.3959C40.4286 15.6309 40.921 15.8402 41.9532 15.9525V16.0121C42.4964 15.9162 42.8189 15.8052 43.0431 15.3995C43.2327 15.6824 43.4581 15.2486 43.6176 15.2954V15.3258C43.8083 14.9528 44.3181 15.2381 44.5088 14.8944C44.5088 14.9236 44.5411 15.0101 44.4776 15.0464C44.6694 14.9119 44.9203 14.7085 45.0185 14.8792C45.4936 14.5997 46.2218 14.3507 46.4056 13.917V13.9766C46.498 13.6995 46.6263 13.8363 46.7812 13.6422C46.8032 13.6597 46.8228 13.6656 46.8251 13.6761C46.9315 13.3932 47.3823 13.371 47.5025 13.2143L47.5683 13.3265L47.944 13.1114L47.7868 13.157C47.6839 12.8098 48.1763 13.2166 48.3601 12.8717C48.6433 12.7852 48.5774 11.9422 48.9265 11.9668C48.9854 11.7528 48.9265 12.2684 49.0675 12.0568C49.153 12.2217 49.0259 12.2065 49.1403 12.3164C49.2941 12.1445 49.5356 12.3374 49.7183 12.1094L49.7899 12.2357C49.9853 11.8464 50.4522 12.1281 50.5505 11.8019C50.8175 11.5412 50.9458 12.0907 51.1561 11.6745L51.3677 11.7914C51.5226 11.7528 51.3677 11.5248 51.5653 11.5377C51.6081 11.6546 51.8046 11.533 51.7618 11.6838C52.1976 11.6909 52.3698 11.0946 52.9732 11.1753C52.9755 10.9087 53.2702 10.9297 53.2725 10.731C53.328 10.821 53.7534 10.5311 53.58 10.8596C53.565 10.8865 53.5233 10.9017 53.5095 10.8631L53.5361 11.0081C53.6308 11.0396 53.7037 11.0326 53.7661 11.0034C53.7973 10.9894 53.825 10.9695 53.8516 10.9449L53.8609 10.9356L53.8805 10.9216L53.9198 10.8923L53.9961 10.8327C54.1995 10.6678 54.359 10.4948 54.6133 10.4071C54.4365 10.4328 54.2619 10.5229 54.3244 10.3884L54.7671 10.2154C54.7682 10.2586 54.7682 10.3019 54.7671 10.3463L55.508 10.0996L55.271 10.04C55.4664 9.99675 55.6628 10.0003 55.8339 9.97687C56.0038 9.95349 56.1506 9.90087 56.2096 9.75941C56.22 9.69042 56.0778 9.69744 55.9749 9.69744C55.8709 9.69744 55.8027 9.69159 55.9345 9.60975L55.9379 9.6004ZM52.9373 7.88056C52.9131 7.87004 52.8899 7.85951 52.868 7.84899C52.9003 7.84899 52.9443 7.84432 53.0055 7.83262C52.9651 7.84081 52.9512 7.86068 52.9373 7.88056ZM53.5765 8.01735C53.61 8.02904 53.6378 8.04307 53.6597 8.05827L53.5742 8.04658L53.5765 8.01735ZM53.1685 7.95539C53.2459 7.94837 53.3453 7.92733 53.4875 7.8829C53.5037 7.8981 53.5083 7.91096 53.506 7.92265C53.4124 7.9776 53.2922 7.97994 53.1697 7.95539H53.1685ZM54.1972 8.3529C53.9845 8.32718 53.966 8.1939 53.6135 8.36226C53.5904 8.35992 53.5684 8.35875 53.5465 8.35641L53.573 8.05243C53.6412 8.09218 53.7129 8.13427 53.7869 8.18104C53.9163 8.17285 54.0423 8.16116 54.1648 8.14713C54.1648 8.20091 54.0389 8.20208 53.9429 8.20442C53.847 8.20676 53.7753 8.20676 53.8701 8.24651L54.24 8.26989C54.2619 8.30497 54.2435 8.33303 54.1984 8.35173L54.1972 8.3529Z" fill="#773E2A"/>
<path d="M57.2627 8.21601C57.2627 8.21601 57.2627 8.21601 57.2639 8.21601C57.3297 8.23004 57.3945 8.24407 57.4615 8.2581L57.2627 8.21484V8.21601Z" fill="#773E2A"/>
</g>
<defs>
<clipPath id="clip0_129_5193">
<rect width="58" height="16" fill="white"/>
</clipPath>
</defs>
</svg>
